<svg width="127" height="45" viewBox="0 0 127 45" fill="none" xmlns="http://www.w3.org/2000/svg">
<path d="M72.8125 38.9688C71.9375 42.3021 69.0417 43.9688 64.125 43.9688H52.9062C49.4062 43.9688 47.6562 42.9583 47.6562 40.9375C47.6562 40.2292 47.875 39.3021 48.3125 38.1562L53.5 24.6562L38 41.6562C36.3333 43.5104 34.5104 44.4375 32.5312 44.4375C32.1562 44.4375 31.7604 44.4062 31.3438 44.3438C28.9688 44.0729 27.7812 42.8854 27.7812 40.7812C27.7812 39.9688 27.9688 39.0938 28.3438 38.1562L36.0312 18.3125L16.75 41.5938C15.4583 43.1771 13.5625 43.9688 11.0625 43.9688H4.71875L17.3438 7.875H0L4.71875 0H25.5938C28.4688 0 29.9062 1.05208 29.9062 3.15625C29.9062 3.96875 29.7083 4.94792 29.3125 6.09375L22.5938 25.4688L36.0312 10.25C37.7396 8.29167 39.0521 7.02083 39.9688 6.4375C41.4896 5.47917 43.4583 5 45.875 5C46.5625 5 47.2812 5.23958 48.0312 5.71875C49.1771 6.46875 49.75 7.58333 49.75 9.0625C49.75 9.97917 49.5208 11.0104 49.0625 12.1562L43 27.9062L55.0312 15.8125C56.7396 14.1042 57.875 13.0729 58.4375 12.7188C59.4167 12.1562 60.8229 11.8854 62.6562 11.9062C63.3854 11.9062 64.1562 12.1771 64.9688 12.7188C66.2188 13.5312 66.8438 14.7188 66.8438 16.2812C66.8438 17.1771 66.6354 18.1667 66.2188 19.25L58.75 38.9688H72.8125ZM126.688 16.0625C126.688 23.7708 123.656 30.4792 117.594 36.1875C111.719 41.7083 105.115 44.4688 97.7812 44.4688C92.3854 44.4688 88.125 43.0104 85 40.0938C81.875 37.1771 80.3125 33.1771 80.3125 28.0938C80.3125 25.4688 80.9271 22.6562 82.1562 19.6562C83.3229 16.8021 84.8646 14.2188 86.7812 11.9062H100.531C98.1771 13.9896 96.2292 16.6562 94.6875 19.9062C93.125 23.2396 92.3438 26.4375 92.3438 29.5C92.3438 32.0208 92.8646 34.1562 93.9062 35.9062C95.1562 37.9896 96.9583 39.0312 99.3125 39.0312C103.229 39.0312 106.771 36.5 109.938 31.4375C112.75 26.8958 114.156 22.5417 114.156 18.375C114.156 15.0625 113.198 12.4896 111.281 10.6562C109.365 8.80208 106.719 7.875 103.344 7.875H72.5L77.2812 0H106.031C111.865 0 116.604 1.1875 120.25 3.5625C124.542 6.375 126.688 10.5417 126.688 16.0625Z" fill="white"/>
</svg>
